<?xml version="1.0" encoding="utf-8"?>
<!-- Generator: Adobe Illustrator 22.1.0, SVG Export Plug-In . SVG Version: 6.00 Build 0)  -->
<svg version="1.1" id="Capa_1" xmlns="http://www.w3.org/2000/svg" xmlns:xlink="http://www.w3.org/1999/xlink" x="0px" y="0px"
	 viewBox="0 0 272 131.6" style="enable-background:new 0 0 272 131.6;" xml:space="preserve">
<style type="text/css">
	.st0{fill:#0D104D;}
	.st1{fill:#999999;}
</style>
<g id="Group_1" transform="translate(0 0.063)">
	<path id="Path_1" class="st0" d="M61.7,83.6L88.2,8.4c4.7-11,16-11.2,20.4,0l26.9,75.3H118l-17.6-57.5c-1-3.7-3.1-3.5-3.8-0.5
		L77.9,83.6H61.7z"/>
	<path id="Path_2" class="st0" d="M194.1,83.6l26.5-75.3c4.7-11,16-11.2,20.4,0l26.9,75.3h-17.4L232.8,26c-1-3.7-3.1-3.5-3.8-0.5
		l-18.5,58.1H194.1z"/>
	<path id="Path_3" class="st0" d="M135,83.7l-6.5-14.8h38c5.1,0,8.4-0.5,10.1-1.9c2.4-1.7,3.7-4.4,3.7-7.8c0-4-1.4-7-4.2-8.9
		c-1.6-1-4.2-1.6-7.8-1.6h-12.7c-7.8,0-13.4-1.7-16.9-5.1c-2.3-2.3-4-5.1-5.1-8.2c-1.2-3.4-1.8-6.9-1.7-10.5
		c-0.1-5.6,1.4-11.2,4.2-16c2.8-4.7,7.1-7.3,13.3-8.2c2.1-0.2,5.1-0.3,9.2-0.3h34.3v14.8h-31c-3.1-0.1-6.2,0.2-9.2,0.7
		c-3.1,0.9-4.7,3.8-4.7,8.5c0,4,1.2,6.6,3.8,8c1.7,0.9,4.7,1.4,8.7,1.4h11.2c5.8,0,9.9,0.5,12.7,1.7c4.7,1.9,8.4,5.7,10.1,10.5
		c1.5,4.1,2.2,8.5,2.3,12.9c0.1,4.7-1,9.3-3,13.6c-2.6,5.8-6.8,9.1-12.2,10.1c-3.9,0.7-7.9,0.9-11.9,0.9H135L135,83.7z M56.3,68.9
		v14.8H32.1c-3.5,0.1-7-0.2-10.5-0.9c-8.5-1.9-14.5-7.7-18.1-17.1C1,59.5,0,51.7,0,42.4C0,31.3,1.7,22.2,5.4,15
		c2.2-4.7,5.9-8.5,10.5-11C20.2,1.8,26,0.6,32.8,0.6h23.4v14.8H34.5c-6.6,0-11.3,2.1-14.5,6.3c-2.6,3.5-3.8,9.8-3.8,19
		c0,12.2,1.9,20.4,5.9,24.2c2.8,2.6,7.1,4,12.9,4H56.3z"/>
	<path id="Path_4" class="st1" d="M269.4,124.2h2.6v3h-2.6V124.2z M261.9,120.4h2.1l-0.9-8h-0.2L261.9,120.4z M258,127.2l3-19h3.7
		l3,19h-2.8l-0.5-4.2h-2.8l-0.5,4.2H258z M253.9,124.2h2.6v3h-2.6L253.9,124.2z M243.1,122.3l2.6-0.3c-0.1,0.7,0.1,1.5,0.5,2.1
		c0.3,0.5,0.8,0.8,1.4,0.7c0.5,0,0.9-0.2,1.2-0.5c0.4-0.4,0.6-0.9,0.5-1.4c0-1-0.7-2.3-2.3-3.8l-0.3-0.3c-1-1.1-2-2.2-2.8-3.5
		c-0.4-0.8-0.7-1.7-0.7-2.6c-0.1-2.5,1.8-4.6,4.2-4.7c0,0,0.1,0,0.1,0c1.1,0,2.2,0.4,3,1.2c0.8,1,1.2,2.2,1.2,3.5l-2.8,0.3
		c0.1-0.6-0.1-1.3-0.5-1.7c-0.4-0.6-1.3-0.7-1.8-0.3c-0.1,0.1-0.2,0.2-0.3,0.3c-0.3,0.3-0.4,0.8-0.3,1.2c0,1,0.9,2.6,2.6,4.4
		l0.2,0.2c1.2,1.4,2.1,2.4,2.6,3.1c0.4,0.9,0.5,1.8,0.5,2.8c0.1,1.3-0.4,2.5-1.2,3.5c-0.8,0.9-1.9,1.4-3.1,1.4
		c-1.3,0-2.5-0.5-3.3-1.4C243.4,125.1,242.9,123.7,243.1,122.3 M228.9,127.2v-14h2.4v1.6c0.5-0.5,0.9-1,1.4-1.2
		c0.4-0.3,0.9-0.5,1.4-0.5c0.6,0,1.1,0.2,1.4,0.7c0.4,0.6,0.6,1.2,0.5,1.9v11.7h-2.4v-10.6c0-0.5,0-0.7-0.2-0.9
		c-0.1-0.1-0.3-0.2-0.5-0.2c-0.2,0-0.3,0.2-0.7,0.3s-0.5,0.5-0.7,0.7v10.6h-2.6L228.9,127.2z M223.7,111.8h-2.1l1.2-3h3.1
		L223.7,111.8z M219.5,116.3c0-2,1.6-3.7,3.6-3.7c2,0,3.7,1.6,3.7,3.6c0,0,0,0.1,0,0.1v7.3c0.1,1-0.3,2-1,2.8
		c-1.5,1.4-3.8,1.4-5.2,0c-0.7-0.7-1.1-1.8-1-2.8L219.5,116.3z M222.1,123.8c0,0.3,0.1,0.6,0.3,0.9c0.2,0.2,0.4,0.3,0.7,0.3
		c0.3,0,0.5-0.2,0.9-0.3c0.2-0.2,0.3-0.5,0.3-0.9v-7.7c0-0.3-0.1-0.5-0.3-0.7c-0.2-0.2-0.5-0.3-0.9-0.3c-0.3,0-0.5,0.1-0.7,0.3
		c-0.2,0.2-0.3,0.4-0.3,0.7V123.8z M214.8,113h2.4V127h-2.4V113z M214.8,108.2h2.4v2.6h-2.4V108.2z M205.4,123.1V117
		c0-1.1,0.3-2.2,1-3.1c0.7-0.8,1.7-1.2,2.8-1.2c1,0,1.9,0.4,2.6,1c0.7,0.8,1,1.9,0.9,3v1h-2.6v-0.9c0-0.5,0-1-0.2-1.2
		c-0.5-0.5-1.3-0.5-1.7,0c-0.2,0.2-0.2,0.7-0.2,1.2v6.3c-0.1,0.5,0,1.1,0.2,1.6c0.2,0.3,0.5,0.3,0.9,0.3c0.3,0,0.6-0.1,0.9-0.3
		c0.2-0.2,0.2-0.7,0.2-1.6v-1h2.6v1.2c0,1.2-0.3,2.3-0.9,3.3c-0.7,0.7-1.8,1.1-2.8,1c-1,0-2-0.4-2.6-1.2
		C205.7,125.5,205.3,124.3,205.4,123.1 M200.9,125.6c-0.3,0.5-0.8,1-1.4,1.2c-0.4,0.3-0.9,0.5-1.4,0.5c-0.6,0-1.2-0.3-1.6-0.9
		c-0.4-0.7-0.6-1.5-0.5-2.3c0-1.2,0.3-2.4,1-3.3c1.1-1.2,2.4-2.2,3.8-3v-1.6c0-0.4,0-0.7-0.2-1c-0.2-0.2-0.4-0.3-0.7-0.3
		c-0.7,0-1.2,0.5-1.2,1.2c0,0,0,0,0,0.1v0.7h-2.4v-0.3c0-1.1,0.3-2.1,1-3c0.7-0.7,1.6-1.1,2.6-1c0.9-0.1,1.8,0.3,2.4,1
		c0.6,1,0.9,2.1,0.9,3.3v8.4c0,0.7,0.2,1.2,0.2,1.6H201c0-0.2-0.2-0.3-0.2-0.7C201,126.3,201,125.9,200.9,125.6 M200.9,123.7V120
		c-0.8,0.4-1.4,1-1.9,1.7c-0.4,0.6-0.5,1.2-0.5,1.9c0,0.4,0,0.7,0.2,1c0.2,0.2,0.3,0.3,0.5,0.3c0.3,0,0.5-0.2,0.9-0.3
		C200.4,124.5,200.7,124.1,200.9,123.7 M189.9,127.2v-13.9h2.4v1.9c0.3-0.6,0.7-1.2,1.2-1.6c0.4-0.4,1-0.5,1.6-0.5h0.2v3
		c-0.2,0-0.2-0.2-0.3-0.2h-0.5c-1-0.1-1.9,0.6-2.1,1.6c0,0.2,0,0.3,0,0.5v9.2L189.9,127.2z M183.6,124.2v-8.9H182V113h1.6v-4h2.4v4
		h1.9v2.3H186v8.7c0,0.7,0.5,1.2,1.2,1.2c0,0,0,0,0.1,0h0.3c0.2,0,0.4,0,0.5-0.2v2.3c-0.2,0-0.5,0.2-0.7,0.2h-0.7
		c-0.8,0.1-1.6-0.2-2.1-0.9C183.9,126,183.5,125.1,183.6,124.2 M173.5,123.3l2.4-0.5c0.1,0.6,0.3,1.2,0.5,1.7c0.2,0.3,0.6,0.5,1,0.5
		c0.7,0,1.2-0.5,1.2-1.2c0,0,0,0,0-0.1c0-0.7-0.9-1.7-2.6-3.1l0,0c-0.7-0.5-1.3-1.2-1.7-1.9c-0.3-0.6-0.5-1.4-0.5-2.1
		c-0.1-1,0.3-2,1-2.8c0.7-0.7,1.6-1.1,2.6-1c0.9-0.1,1.8,0.3,2.4,1c0.7,0.7,1.1,1.6,1,2.6l-2.4,0.5c-0.2-0.5-0.2-1-0.5-1.4
		c-0.2-0.3-0.5-0.5-0.9-0.5c-0.3,0-0.5,0.2-0.9,0.3c-0.2,0.2-0.3,0.5-0.3,0.9c0,0.7,0.5,1.4,1.7,2.4l0.7,0.7
		c0.7,0.6,1.3,1.3,1.9,2.1c0.3,0.6,0.5,1.4,0.5,2.1c0.1,2-1.4,3.7-3.4,3.8c-0.2,0-0.3,0-0.5,0c-1,0-1.9-0.4-2.6-1
		C174,125.4,173.7,124.4,173.5,123.3 M169.5,113h2.4V127h-2.4V113z M169.5,108.1h2.4v2.6h-2.4V108.1z M159.9,127.2v-13.9h2.4v1.6
		c0.5-0.5,0.9-1,1.4-1.2c0.4-0.3,0.9-0.5,1.4-0.5c0.6,0,1.1,0.2,1.4,0.7c0.4,0.6,0.6,1.2,0.5,1.9v11.7h-2.4v-10.6
		c0-0.5,0-0.7-0.2-0.9c-0.1-0.1-0.3-0.2-0.5-0.2c-0.2,0-0.3,0.2-0.7,0.3s-0.5,0.5-0.7,0.7v10.6h-2.6L159.9,127.2z M155,113h2.4V127
		H155V113z M155,108.1h2.4v2.6H155V108.1z M140.9,127.2v-13.9h2.4v1.4c0.5-0.5,0.9-1,1.4-1.2c0.4-0.3,0.9-0.4,1.4-0.3
		c0.4,0,0.9,0.1,1.2,0.3c0.3,0.3,0.6,0.8,0.7,1.2c0.4-0.5,0.9-0.9,1.4-1.2c0.4-0.3,0.9-0.4,1.4-0.3c0.5,0,1,0.1,1.4,0.5
		c0.4,0.5,0.6,1.1,0.5,1.7v11.9h-2.4v-10.6c0-0.5,0-0.7-0.2-0.9c-0.1-0.1-0.3-0.2-0.5-0.2c-0.2,0-0.3,0.2-0.7,0.3s-0.5,0.5-0.7,0.7
		v10.6h-2.3v-10.6c0-0.3,0-0.6-0.2-0.9c-0.1-0.1-0.3-0.2-0.5-0.2c-0.2,0-0.3,0.2-0.7,0.3s-0.5,0.5-0.9,0.7v10.6H140.9L140.9,127.2z
		 M136,125.9c-0.3,0.4-0.7,0.7-1,1c-0.4,0.2-0.8,0.3-1.2,0.3c-0.7,0-1.3-0.3-1.7-0.9c-0.4-0.7-0.6-1.5-0.5-2.3v-7.8
		c-0.1-0.9,0.1-1.9,0.7-2.6c0.4-0.6,1.1-0.9,1.7-0.9c0.4,0.1,0.8,0.2,1.2,0.3c0.4,0.3,0.8,0.6,1,1v-6.1h2.4v19H136L136,125.9z
		 M136,124.4v-8.7l-0.5-0.5H135c-0.3,0-0.5,0.1-0.7,0.3c-0.2,0.3-0.3,0.7-0.3,1v7.3c0,0.5,0,0.7,0.2,0.9c0.2,0.2,0.4,0.3,0.7,0.3
		c0.2,0,0.4,0,0.5-0.2C135.7,124.9,135.8,124.7,136,124.4 M124.3,120.4h2.1l-0.9-8h-0.2L124.3,120.4z M120.7,127.2l3-19h3.7l3,19
		h-2.8l-0.5-4.2h-2.8l-0.5,4.2H120.7z M107.4,113h2.3l1.6,9.1h0.2l1.2-9.1h2.4l-2.8,15c-0.1,1-0.5,1.9-1.2,2.6
		c-0.7,0.6-1.5,0.9-2.4,0.9h-1v-2.4h0.5c0.6,0,1.1-0.1,1.6-0.5c0.4-0.5,0.6-1.1,0.5-1.7L107.4,113z M93.6,127.2v-13.9h2.4v1.6
		c0.5-0.5,0.9-1,1.4-1.2c0.4-0.3,0.9-0.5,1.4-0.5c0.6,0,1.1,0.2,1.4,0.7c0.4,0.6,0.6,1.2,0.5,1.9v11.7h-2.4v-10.6
		c0-0.5,0-0.7-0.2-0.9c-0.1-0.1-0.3-0.2-0.5-0.2c-0.2,0-0.3,0.2-0.7,0.3s-0.5,0.5-0.7,0.7v10.6h-2.6V127.2z M88.6,111.8h-2.1l1.2-3
		h3.1L88.6,111.8z M84.2,116.3c0-2,1.6-3.7,3.6-3.7c2,0,3.7,1.6,3.7,3.6c0,0,0,0.1,0,0.1v7.3c0.1,1-0.3,2-1,2.8
		c-1.5,1.4-3.8,1.4-5.2,0c-0.7-0.7-1.1-1.8-1-2.8V116.3z M86.8,123.8c0,0.3,0.1,0.6,0.3,0.9c0.2,0.2,0.4,0.3,0.7,0.3
		c0.3,0,0.5-0.2,0.9-0.3c0.2-0.3,0.2-0.6,0.2-0.9v-7.7c0-0.3-0.1-0.5-0.3-0.7c-0.2-0.2-0.5-0.3-0.9-0.3c-0.3,0-0.5,0.1-0.7,0.3
		c-0.2,0.2-0.3,0.4-0.3,0.7v7.7L86.8,123.8z M79.7,113h2.4V127h-2.4L79.7,113z M79.7,108.2h2.4v2.6h-2.4L79.7,108.2z M70.3,123.1
		V117c0-1.1,0.3-2.3,1-3.1c0.7-0.8,1.7-1.2,2.8-1.2c1,0,1.9,0.4,2.6,1c0.7,0.8,1,1.9,0.9,3v1H75v-0.9c0-0.5,0-1-0.2-1.2
		c-0.5-0.5-1.3-0.5-1.7,0c-0.2,0.2-0.2,0.7-0.2,1.2v6.3c-0.1,0.5,0,1.1,0.2,1.6c0.2,0.3,0.5,0.3,0.9,0.3c0.3,0,0.6-0.1,0.9-0.3
		c0.2-0.2,0.2-0.7,0.2-1.6v-1h2.6v1.2c0,1.2-0.3,2.3-0.9,3.3c-0.7,0.7-1.8,1.1-2.8,1c-1,0-2-0.4-2.6-1.2
		C70.5,125.6,70.1,124.3,70.3,123.1 M61,123.1V117c0-1.1,0.3-2.3,1-3.1c0.7-0.8,1.7-1.2,2.8-1.2c1,0,1.9,0.4,2.6,1
		c0.7,0.8,1,1.9,0.9,3v1h-2.6v-0.9c0-0.4-0.1-0.8-0.2-1.2c-0.5-0.5-1.3-0.5-1.7,0c-0.2,0.2-0.2,0.7-0.2,1.2v6.3
		c-0.1,0.5,0,1.1,0.2,1.6c0.2,0.3,0.5,0.3,0.9,0.3c0.3,0,0.6-0.1,0.9-0.3c0.2-0.2,0.2-0.7,0.2-1.6v-1h2.6v1.2c0,1.2-0.3,2.3-0.9,3.3
		c-0.7,0.7-1.8,1.1-2.8,1c-1,0-2-0.4-2.6-1.2C61.3,125.5,61,124.3,61,123.1 M58.9,113V127h-2.4v-1.4c-0.5,0.5-0.9,1-1.4,1.2
		c-0.5,0.3-1,0.5-1.6,0.5c-0.6,0-1.1-0.2-1.4-0.7c-0.4-0.6-0.6-1.2-0.5-1.9V113h2.4v10.8c0,0.3,0,0.5,0.2,0.7
		c0.1,0.1,0.3,0.2,0.5,0.2c0.2,0,0.3-0.2,0.7-0.3s0.5-0.5,0.7-0.7V113H58.9z M45,127.2v-13.9h2.4v1.9c0.3-0.6,0.7-1.2,1.2-1.6
		c0.4-0.4,1-0.5,1.6-0.5h0.2v3c-0.2,0-0.2-0.2-0.3-0.2h-0.3c-1-0.1-1.9,0.6-2.1,1.6c0,0.2,0,0.3,0,0.5v9.2L45,127.2z M38.9,124.2
		v-8.9h-1.6V113h1.6v-4h2.4v4h1.9v2.3h-1.9v8.7c0,0.7,0.5,1.2,1.2,1.2c0,0,0,0,0.1,0h0.3c0.2,0,0.3,0,0.3-0.2v2.3
		c-0.2,0-0.5,0.2-0.7,0.2h-0.7c-0.8,0.1-1.6-0.2-2.1-0.9C39.1,126,38.8,125.1,38.9,124.2 M28.8,123.3l2.4-0.5
		c0.1,0.6,0.3,1.2,0.5,1.7c0.2,0.3,0.6,0.5,1,0.5c0.7,0,1.2-0.5,1.2-1.2c0,0,0,0,0-0.1c0-0.7-0.9-1.7-2.6-3.1l0,0
		c-0.7-0.5-1.3-1.2-1.7-1.9c-0.3-0.6-0.5-1.4-0.5-2.1c-0.1-1,0.3-2.1,1-2.8c0.7-0.7,1.6-1.1,2.6-1c0.9-0.1,1.8,0.3,2.4,1
		c0.7,0.7,1.1,1.6,1,2.6l-2.4,0.5c-0.2-0.5-0.2-1-0.5-1.4c-0.2-0.3-0.5-0.5-0.9-0.5c-0.3,0-0.5,0.2-0.9,0.3
		c-0.2,0.2-0.3,0.5-0.3,0.9c0,0.7,0.5,1.4,1.7,2.4l0.7,0.7c0.7,0.6,1.3,1.3,1.9,2.1c0.3,0.6,0.5,1.4,0.5,2.1c0.1,2-1.4,3.7-3.3,3.8
		c-0.2,0-0.3,0-0.5,0c-1,0-1.9-0.4-2.6-1C29.2,125.5,28.9,124.4,28.8,123.3 M20.1,127.2v-13.9h2.6v1.6c0.5-0.5,0.9-1,1.4-1.2
		c0.4-0.3,0.9-0.5,1.4-0.5c0.6,0,1.1,0.2,1.4,0.7c0.4,0.6,0.6,1.2,0.5,1.9v11.7h-2.4v-10.6c0-0.5,0-0.7-0.2-0.9
		c-0.1-0.1-0.3-0.2-0.5-0.2c-0.2,0-0.3,0.2-0.7,0.3s-0.5,0.5-0.7,0.7v10.6H20L20.1,127.2z M10.8,116.3c0-2,1.5-3.6,3.5-3.7
		c0.1,0,0.1,0,0.2,0c2,0,3.6,1.5,3.7,3.5c0,0.1,0,0.1,0,0.2v7.3c0.1,1-0.3,2-1,2.8c-0.7,0.7-1.6,1.1-2.6,1c-1,0-1.9-0.4-2.6-1
		c-0.7-0.7-1.1-1.8-1-2.8L10.8,116.3L10.8,116.3z M13.3,123.8c0,0.3,0,0.6,0.2,0.9c0.2,0.2,0.4,0.3,0.7,0.3c0.3,0,0.5-0.2,0.9-0.3
		c0.2-0.2,0.3-0.5,0.3-0.9v-7.7c0-0.3-0.1-0.5-0.3-0.7c0-0.2-0.3-0.3-0.7-0.3c-0.3,0-0.5,0.1-0.7,0.3c-0.2,0.2-0.3,0.4-0.3,0.7
		L13.3,123.8z M0.2,122.3v-9.8c-0.1-1.3,0.3-2.6,1.2-3.5c0.9-0.9,2.1-1.3,3.3-1.2c1.2,0,2.3,0.5,3.1,1.4c0.7,1,1.1,2.2,1,3.5v1.7h-3
		v-2.1c0-0.5-0.1-1-0.3-1.4c-0.2-0.4-0.6-0.6-1-0.5c-0.4-0.1-0.8,0.2-1,0.5c-0.2,0.4-0.3,0.9-0.3,1.4V123c0,0.5,0.1,1.1,0.3,1.6
		c0.2,0.4,0.6,0.6,1,0.5c0.4,0.1,0.8-0.2,1-0.5c0.2-0.5,0.4-1,0.3-1.6v-2.6h2.8v1.9c0.1,1.4-0.3,2.7-1,3.8c-0.8,0.9-1.9,1.4-3.1,1.4
		c-1.2,0.1-2.4-0.5-3.1-1.4C0.5,125,0,123.7,0.2,122.3"/>
</g>
</svg>
